<?xml version="1.0" standalone="no"?>
<!DOCTYPE svg PUBLIC "-//W3C//DTD SVG 20010904//EN"
 "http://www.w3.org/TR/2001/REC-SVG-20010904/DTD/svg10.dtd">
<svg version="1.0" xmlns="http://www.w3.org/2000/svg"
 width="512.000000pt" height="512.000000pt" viewBox="0 0 512.000000 512.000000"
 preserveAspectRatio="xMidYMid meet">

<g transform="translate(0.000000,512.000000) scale(0.100000,-0.100000)"
fill="#000000" stroke="none">
<path d="M3487 4374 c-10 -10 -9 -964 1 -964 5 0 111 104 236 232 l226 232 -2
250 -3 251 -226 3 c-124 1 -228 -1 -232 -4z"/>
<path d="M870 4094 c-6 -16 -10 -625 -10 -1675 0 -1636 0 -1649 20 -1669 20
-20 33 -20 1686 -20 1129 0 1672 3 1685 10 19 11 19 40 19 1673 0 1489 -2
1665 -16 1685 -14 20 -23 22 -104 22 -86 0 -90 -1 -96 -23 -3 -13 -4 -41 -2
-63 3 -37 5 -39 38 -42 19 -2 38 -9 42 -15 12 -19 10 -3105 -2 -3109 -5 -1
-712 -2 -1570 0 l-1560 2 0 1554 c0 1408 1 1554 16 1560 9 3 542 6 1185 6
l1170 0 -3 63 -3 62 -1243 3 -1242 2 -10 -26z"/>
<path d="M2910 3796 c-12 -12 -14 -956 -2 -956 4 0 112 105 240 233 l232 233
0 241 c0 183 -3 244 -12 250 -19 12 -446 11 -458 -1z"/>
<path d="M2348 3233 c-17 -4 -18 -36 -18 -484 0 -275 4 -479 9 -479 5 0 111
102 235 228 l226 227 0 253 0 252 -197 0 c-109 0 -207 2 -218 4 -11 2 -28 2
-37 -1z"/>
<path d="M1757 2646 c-6 -14 2 -948 7 -953 1 -2 107 103 234 232 l232 234 -2
248 -3 248 -231 3 c-196 2 -233 0 -237 -12z"/>
<path d="M1187 2084 c-10 -10 -9 -954 1 -954 4 0 110 102 235 228 l227 228 -2
249 -3 250 -226 3 c-124 1 -228 -1 -232 -4z"/>
<path d="M2119 1853 c-13 -16 -12 -17 4 -4 9 7 17 15 17 17 0 8 -8 3 -21 -13z"/>
<path d="M3230 1799 c0 -5 5 -7 10 -4 6 3 10 8 10 11 0 2 -4 4 -10 4 -5 0 -10
-5 -10 -11z"/>
<path d="M3130 1750 c-9 -6 -10 -10 -3 -10 6 0 15 5 18 10 8 12 4 12 -15 0z"/>
<path d="M3219 1743 c-13 -16 -12 -17 4 -4 9 7 17 15 17 17 0 8 -8 3 -21 -13z"/>
<path d="M1901 1641 c-7 -5 -12 -14 -10 -20 2 -6 10 -2 17 9 14 22 13 23 -7
11z"/>
<path d="M3055 1641 c-3 -5 -1 -12 5 -16 5 -3 10 1 10 9 0 18 -6 21 -15 7z"/>
<path d="M1851 1614 c0 -11 3 -14 6 -6 3 7 2 16 -1 19 -3 4 -6 -2 -5 -13z"/>
<path d="M2983 1553 c-7 -2 -13 -11 -13 -18 0 -7 -6 -16 -12 -18 -8 -4 -9 -6
-2 -6 7 -1 19 10 28 24 9 14 15 25 14 24 -2 0 -9 -3 -15 -6z"/>
<path d="M1799 1533 c-13 -16 -12 -17 4 -4 9 7 17 15 17 17 0 8 -8 3 -21 -13z"/>
<path d="M2893 1512 c-7 -4 -10 -17 -7 -29 5 -19 8 -20 35 -6 16 8 33 12 38 9
5 -4 13 -2 16 4 4 6 3 10 -2 9 -26 -5 -63 2 -58 11 7 12 -5 13 -22 2z"/>
<path d="M1725 1500 c-3 -5 -1 -10 4 -10 6 0 11 5 11 10 0 6 -2 10 -4 10 -3 0
-8 -4 -11 -10z"/>
<path d="M1735 1470 c-3 -5 -2 -10 4 -10 5 0 13 5 16 10 3 6 2 10 -4 10 -5 0
-13 -4 -16 -10z"/>
<path d="M3620 1470 c0 -5 5 -10 11 -10 5 0 7 5 4 10 -3 6 -8 10 -11 10 -2 0
-4 -4 -4 -10z"/>
<path d="M1698 1443 c-10 -2 -18 -8 -18 -13 0 -5 -3 -16 -6 -25 -4 -9 -3 -15
2 -14 25 4 44 -3 44 -16 0 -10 -10 -14 -34 -13 -26 1 -33 5 -29 17 4 13 2 13
-10 -1 -19 -24 -31 -23 -24 3 8 30 -3 16 -24 -31 -17 -38 -15 -46 14 -41 4 0
7 -5 7 -12 0 -7 -9 -13 -20 -13 -11 0 -20 6 -20 13 0 17 -17 17 -23 1 -2 -7
-8 -9 -13 -5 -5 5 -1 14 9 21 9 7 17 17 17 21 0 5 -9 0 -20 -10 -11 -10 -20
-24 -20 -32 0 -7 -5 -13 -12 -13 -6 0 -8 -3 -5 -6 3 -4 2 -15 -3 -25 -6 -11
-6 -19 0 -21 6 -2 6 -8 0 -18 -8 -13 -10 -12 -10 3 0 9 -4 17 -10 17 -5 0 -10
-7 -10 -15 0 -8 -4 -15 -10 -15 -14 0 -12 12 7 40 l17 25 -22 -19 c-12 -11
-22 -26 -22 -34 0 -8 -6 -12 -15 -8 -8 3 -15 1 -15 -3 0 -5 5 -11 12 -13 8 -3
5 -12 -10 -28 -23 -25 -43 -21 -22 5 20 24 3 17 -23 -9 -14 -14 -22 -27 -19
-31 3 -3 -3 -8 -13 -11 -11 -3 -29 -17 -40 -32 -16 -23 -16 -25 -1 -13 13 11
19 12 25 3 6 -10 147 -12 600 -12 530 0 596 1 627 16 23 11 33 22 30 31 -3 8
-2 12 3 8 11 -6 41 21 41 38 0 6 -7 2 -15 -9 -13 -17 -14 -17 -15 -2 0 10 9
22 20 28 11 6 19 16 17 22 -1 7 3 12 9 13 7 0 21 11 32 25 18 22 22 23 37 10
16 -13 18 -13 13 0 -5 16 -40 18 -73 5 -19 -8 -19 -8 -3 12 12 13 27 18 46 15
26 -3 27 -1 29 37 1 22 -3 43 -8 46 -5 4 -9 23 -9 43 l0 37 -470 0 -469 0 -3
-24 c-4 -36 -24 -37 -41 -2 -11 22 -12 31 -3 35 14 6 -3 5 -26 -1z m885 -256
c3 -8 2 -19 -3 -26 -5 -9 -9 -4 -12 13 -5 27 6 36 15 13z m-17 -74 c-2 -9 -9
-19 -17 -21 -11 -3 -11 -1 1 7 12 9 10 11 -10 12 l-25 1 25 8 c14 4 26 8 27 9
1 1 0 -7 -1 -16z m-1209 -19 c-3 -3 -12 -4 -19 -1 -8 3 -5 6 6 6 11 1 17 -2
13 -5z m671 -21 c-75 -2 -201 -2 -280 0 -79 1 -17 3 137 3 154 0 218 -2 143
-3z m185 0 c-7 -2 -21 -2 -30 0 -10 3 -4 5 12 5 17 0 24 -2 18 -5z m314 1 c-3
-3 -12 -4 -19 -1 -8 3 -5 6 6 6 11 1 17 -2 13 -5z"/>
<path d="M2725 1430 c-3 -5 -1 -10 4 -10 6 0 11 5 11 10 0 6 -2 10 -4 10 -3 0
-8 -4 -11 -10z"/>
<path d="M2750 1430 c0 -5 7 -10 15 -10 8 0 15 5 15 10 0 6 -7 10 -15 10 -8 0
-15 -4 -15 -10z"/>
<path d="M2802 1420 c0 -14 2 -19 5 -12 2 6 2 18 0 25 -3 6 -5 1 -5 -13z"/>
<path d="M2827 1416 c-4 -15 -6 -31 -2 -34 10 -10 16 6 13 35 l-3 28 -8 -29z"/>
<path d="M3930 1400 c0 -29 -4 -40 -15 -40 -10 0 -15 -11 -15 -35 0 -24 -5
-35 -15 -35 -11 0 -15 11 -15 36 0 36 -1 36 -32 30 -38 -7 -42 -11 -33 -26 5
-8 11 -8 21 1 11 9 14 8 14 -5 0 -9 -4 -16 -10 -16 -18 0 -10 -18 10 -25 11
-4 18 -10 15 -15 -3 -5 -1 -11 5 -15 6 -4 8 -10 5 -15 -3 -4 2 -13 10 -20 11
-9 15 -10 15 -1 0 7 8 10 18 7 12 -4 19 -1 19 6 0 7 3 57 7 111 4 53 5 97 2
97 -3 0 -6 -18 -6 -40z"/>
<path d="M2861 1430 c-1 -3 -4 -18 -6 -34 -3 -20 -1 -26 6 -19 6 6 9 21 6 34
-2 13 -5 22 -6 19z"/>
<path d="M3730 1410 c6 -11 16 -20 22 -20 6 0 3 9 -7 20 -10 11 -20 20 -22 20
-2 0 1 -9 7 -20z"/>
<path d="M3695 1390 c3 -5 11 -10 16 -10 6 0 7 5 4 10 -3 6 -11 10 -16 10 -6
0 -7 -4 -4 -10z"/>
<path d="M2804 1353 c1 -29 2 -30 19 -16 21 19 22 24 3 17 -8 -3 -16 2 -19 13
-2 10 -4 4 -3 -14z"/>
<path d="M3743 1356 c0 -7 6 -13 14 -13 7 0 13 4 13 8 0 4 -6 9 -13 12 -8 3
-14 0 -14 -7z"/>
<path d="M2781 1344 c0 -11 3 -14 6 -6 3 7 2 16 -1 19 -3 4 -6 -2 -5 -13z"/>
<path d="M2745 1327 c-4 -10 -5 -21 -1 -24 10 -10 18 4 13 24 -4 17 -4 17 -12
0z"/>
<path d="M3780 1309 c7 -11 14 -19 16 -16 7 7 -7 37 -17 37 -6 0 -5 -9 1 -21z"/>
<path d="M2759 1284 c-23 -25 -23 -26 -2 -13 13 7 25 19 27 26 8 19 2 16 -25
-13z"/>
<path d="M2685 1210 c-10 -12 -24 -19 -30 -16 -6 2 -11 -4 -11 -14 0 -17 2
-17 22 -1 20 15 49 51 41 51 -2 0 -12 -9 -22 -20z"/>
</g>
</svg>
