<?xml version="1.0" standalone="no"?>
<!DOCTYPE svg PUBLIC "-//W3C//DTD SVG 20010904//EN"
 "http://www.w3.org/TR/2001/REC-SVG-20010904/DTD/svg10.dtd">
<svg version="1.0" xmlns="http://www.w3.org/2000/svg"
 width="200.000000pt" height="200.000000pt" viewBox="0 0 200.000000 200.000000"
 preserveAspectRatio="xMidYMid meet">

<g transform="translate(0.000000,200.000000) scale(0.100000,-0.100000)"
fill="#000000" stroke="none">
<path d="M953 1985 c-149 -27 -275 -78 -402 -162 -249 -166 -408 -425 -434
-705 l-6 -58 90 0 c79 0 89 2 89 18 0 43 45 193 81 270 121 261 346 427 632
468 l47 6 0 89 c0 65 -3 89 -12 88 -7 0 -45 -7 -85 -14z"/>
<path d="M1170 1911 l0 -88 73 -12 c110 -18 222 -61 321 -124 l90 -57 108 0
c132 0 134 5 45 93 -132 129 -381 243 -589 270 l-48 7 0 -89z"/>
<path d="M845 1523 c-47 -2 -83 -9 -87 -16 -9 -14 -11 -981 -2 -1014 6 -22 10
-23 129 -23 l122 0 6 98 c4 53 7 121 7 150 l0 52 118 0 c270 0 389 56 465 218
28 60 32 77 32 157 0 115 -21 177 -83 246 -51 57 -127 98 -222 119 -57 12
-347 20 -485 13z m452 -233 c58 -26 83 -69 83 -145 0 -78 -24 -119 -86 -146
-51 -23 -160 -35 -228 -25 l-46 7 0 164 0 164 38 4 c68 8 196 -4 239 -23z"/>
<path d="M110 943 c0 -38 34 -202 54 -259 52 -154 119 -265 229 -381 154 -162
364 -264 610 -298 l47 -6 0 89 0 89 -62 13 c-201 40 -273 72 -403 180 -159
131 -249 290 -287 505 l-13 70 -87 3 c-49 1 -88 -1 -88 -5z"/>
<path d="M1564 311 c-82 -56 -206 -103 -317 -122 l-77 -13 0 -88 c0 -48 2 -88
4 -88 33 0 174 26 225 42 132 40 298 137 399 232 91 86 92 86 -45 86 l-118 -1
-71 -48z"/>
</g>
</svg>
